<?xml version="1.0" encoding="UTF-8" standalone="no"?>
<!-- Created with Inkscape (http://www.inkscape.org/) -->

<svg
   xmlns:dc="http://purl.org/dc/elements/1.1/"
   xmlns:cc="http://creativecommons.org/ns#"
   xmlns:rdf="http://www.w3.org/1999/02/22-rdf-syntax-ns#"
   xmlns:svg="http://www.w3.org/2000/svg"
   xmlns="http://www.w3.org/2000/svg"
   xmlns:sodipodi="http://sodipodi.sourceforge.net/DTD/sodipodi-0.dtd"
   xmlns:inkscape="http://www.inkscape.org/namespaces/inkscape"
   width="550.54736"
   height="481.81937"
   id="svg9648"
   version="1.1"
   inkscape:version="0.48.2 r9819"
   sodipodi:docname="AJAX1.svg">
  <defs
     id="defs9650">
    <inkscape:perspective
       sodipodi:type="inkscape:persp3d"
       inkscape:vp_x="0 : 526.18109 : 1"
       inkscape:vp_y="0 : 1000 : 0"
       inkscape:vp_z="744.09448 : 526.18109 : 1"
       inkscape:persp3d-origin="372.04724 : 350.78739 : 1"
       id="perspective9656" />
    <inkscape:perspective
       sodipodi:type="inkscape:persp3d"
       inkscape:vp_x="0 : 226.5 : 1"
       inkscape:vp_y="0 : 1000 : 0"
       inkscape:vp_z="510 : 226.5 : 1"
       inkscape:persp3d-origin="255 : 151 : 1"
       id="perspective18" />
    <inkscape:perspective
       id="perspective9680"
       inkscape:persp3d-origin="0.5 : 0.33333333 : 1"
       inkscape:vp_z="1 : 0.5 : 1"
       inkscape:vp_y="0 : 1000 : 0"
       inkscape:vp_x="0 : 0.5 : 1"
       sodipodi:type="inkscape:persp3d" />
  </defs>
  <sodipodi:namedview
     id="base"
     pagecolor="#ffffff"
     bordercolor="#666666"
     borderopacity="1.0"
     inkscape:pageopacity="0.0"
     inkscape:pageshadow="2"
     inkscape:zoom="0.7048968"
     inkscape:cx="369.36534"
     inkscape:cy="233.7362"
     inkscape:document-units="px"
     inkscape:current-layer="layer1"
     showgrid="false"
     inkscape:window-width="1280"
     inkscape:window-height="1004"
     inkscape:window-x="-8"
     inkscape:window-y="-8"
     inkscape:window-maximized="1"
     fit-margin-top="0"
     fit-margin-left="0"
     fit-margin-right="0"
     fit-margin-bottom="0" />
  <metadata
     id="metadata9653">
    <rdf:RDF>
      <cc:Work
         rdf:about="">
        <dc:format>image/svg+xml</dc:format>
        <dc:type
           rdf:resource="http://purl.org/dc/dcmitype/StillImage" />
        <dc:title />
      </cc:Work>
    </rdf:RDF>
  </metadata>
  <g
     inkscape:label="Livello 1"
     inkscape:groupmode="layer"
     id="layer1"
     transform="translate(535.53795,-188.51099)">
    <path
       d="m -278.37477,199.18377 -253.8988,440.12516 c -1.60286,2.95162 -3.26438,6.66559 -3.26438,10.24274 0,11.47421 9.91044,20.77868 21.38466,20.77868 l 507.778072,0 c 11.47421,0 21.38464,-9.30447 21.38464,-20.77868 0,-3.57715 -1.64195,-7.29112 -3.24483,-10.24274 L -242.15377,199.18377 c -3.53804,-6.35284 -10.37957,-10.67278 -18.10072,-10.67278 -7.72115,0 -14.54313,4.31994 -18.12028,10.67278"
       style="fill:#d20000;fill-opacity:1;fill-rule:nonzero;stroke:none"
       id="path6868"
       inkscape:connector-curvature="0"
       sodipodi:nodetypes="ccssssccsc" />
    <path
       d="m -260.25449,283.94051 -189.88167,328.33461 379.743802,0 -189.862132,-328.33461"
       style="fill:#f8c800;fill-opacity:1;fill-rule:nonzero;stroke:none"
       id="path6870"
       inkscape:connector-curvature="0" />
    <path
       d="m -216.97695,593.0993 42.12425,0 0,-95.93775 c 0,-22.92888 -6.41149,-37.80431 -22.22519,-54.3999 -14.91452,-15.67688 -28.44119,-20.6614 -49.72811,-24.57085 l -50.90096,-9.36312 -25.15727,17.55339 15.8137,23.98445 51.46782,8.7767 c 12.49067,2.13065 21.61924,3.2253 29.82906,12.86207 6.60695,7.7407 8.7767,14.4063 8.7767,24.57085 l 0,96.52416"
       style="fill:#000000;fill-opacity:1;fill-rule:nonzero;stroke:none"
       id="path6872"
       inkscape:connector-curvature="0" />
  </g>
</svg>
