<?xml version="1.0" encoding="UTF-8" standalone="no"?>
<!-- Created with Inkscape (http://www.inkscape.org/) -->

<svg
   xmlns:dc="http://purl.org/dc/elements/1.1/"
   xmlns:cc="http://creativecommons.org/ns#"
   xmlns:rdf="http://www.w3.org/1999/02/22-rdf-syntax-ns#"
   xmlns:svg="http://www.w3.org/2000/svg"
   xmlns="http://www.w3.org/2000/svg"
   xmlns:sodipodi="http://sodipodi.sourceforge.net/DTD/sodipodi-0.dtd"
   xmlns:inkscape="http://www.inkscape.org/namespaces/inkscape"
   width="601.05762"
   height="601.03375"
   id="svg9648"
   version="1.1"
   inkscape:version="0.48.2 r9819"
   sodipodi:docname="AJAX1.svg">
  <defs
     id="defs9650">
    <inkscape:perspective
       sodipodi:type="inkscape:persp3d"
       inkscape:vp_x="0 : 526.18109 : 1"
       inkscape:vp_y="0 : 1000 : 0"
       inkscape:vp_z="744.09448 : 526.18109 : 1"
       inkscape:persp3d-origin="372.04724 : 350.78739 : 1"
       id="perspective9656" />
    <inkscape:perspective
       sodipodi:type="inkscape:persp3d"
       inkscape:vp_x="0 : 226.5 : 1"
       inkscape:vp_y="0 : 1000 : 0"
       inkscape:vp_z="510 : 226.5 : 1"
       inkscape:persp3d-origin="255 : 151 : 1"
       id="perspective18" />
    <inkscape:perspective
       id="perspective9680"
       inkscape:persp3d-origin="0.5 : 0.33333333 : 1"
       inkscape:vp_z="1 : 0.5 : 1"
       inkscape:vp_y="0 : 1000 : 0"
       inkscape:vp_x="0 : 0.5 : 1"
       sodipodi:type="inkscape:persp3d" />
    <inkscape:perspective
       id="perspective9688"
       inkscape:persp3d-origin="0.5 : 0.33333333 : 1"
       inkscape:vp_z="1 : 0.5 : 1"
       inkscape:vp_y="0 : 1000 : 0"
       inkscape:vp_x="0 : 0.5 : 1"
       sodipodi:type="inkscape:persp3d" />
    <inkscape:perspective
       id="perspective9719"
       inkscape:persp3d-origin="0.5 : 0.33333333 : 1"
       inkscape:vp_z="1 : 0.5 : 1"
       inkscape:vp_y="0 : 1000 : 0"
       inkscape:vp_x="0 : 0.5 : 1"
       sodipodi:type="inkscape:persp3d" />
    <inkscape:perspective
       id="perspective9754"
       inkscape:persp3d-origin="0.5 : 0.33333333 : 1"
       inkscape:vp_z="1 : 0.5 : 1"
       inkscape:vp_y="0 : 1000 : 0"
       inkscape:vp_x="0 : 0.5 : 1"
       sodipodi:type="inkscape:persp3d" />
    <inkscape:perspective
       id="perspective9782"
       inkscape:persp3d-origin="0.5 : 0.33333333 : 1"
       inkscape:vp_z="1 : 0.5 : 1"
       inkscape:vp_y="0 : 1000 : 0"
       inkscape:vp_x="0 : 0.5 : 1"
       sodipodi:type="inkscape:persp3d" />
    <inkscape:perspective
       id="perspective9837"
       inkscape:persp3d-origin="0.5 : 0.33333333 : 1"
       inkscape:vp_z="1 : 0.5 : 1"
       inkscape:vp_y="0 : 1000 : 0"
       inkscape:vp_x="0 : 0.5 : 1"
       sodipodi:type="inkscape:persp3d" />
    <inkscape:perspective
       id="perspective9872"
       inkscape:persp3d-origin="0.5 : 0.33333333 : 1"
       inkscape:vp_z="1 : 0.5 : 1"
       inkscape:vp_y="0 : 1000 : 0"
       inkscape:vp_x="0 : 0.5 : 1"
       sodipodi:type="inkscape:persp3d" />
    <inkscape:perspective
       id="perspective9901"
       inkscape:persp3d-origin="0.5 : 0.33333333 : 1"
       inkscape:vp_z="1 : 0.5 : 1"
       inkscape:vp_y="0 : 1000 : 0"
       inkscape:vp_x="0 : 0.5 : 1"
       sodipodi:type="inkscape:persp3d" />
    <inkscape:perspective
       id="perspective9901-6"
       inkscape:persp3d-origin="0.5 : 0.33333333 : 1"
       inkscape:vp_z="1 : 0.5 : 1"
       inkscape:vp_y="0 : 1000 : 0"
       inkscape:vp_x="0 : 0.5 : 1"
       sodipodi:type="inkscape:persp3d" />
    <inkscape:perspective
       id="perspective9901-1"
       inkscape:persp3d-origin="0.5 : 0.33333333 : 1"
       inkscape:vp_z="1 : 0.5 : 1"
       inkscape:vp_y="0 : 1000 : 0"
       inkscape:vp_x="0 : 0.5 : 1"
       sodipodi:type="inkscape:persp3d" />
    <inkscape:perspective
       id="perspective9959"
       inkscape:persp3d-origin="0.5 : 0.33333333 : 1"
       inkscape:vp_z="1 : 0.5 : 1"
       inkscape:vp_y="0 : 1000 : 0"
       inkscape:vp_x="0 : 0.5 : 1"
       sodipodi:type="inkscape:persp3d" />
    <inkscape:perspective
       id="perspective9990"
       inkscape:persp3d-origin="0.5 : 0.33333333 : 1"
       inkscape:vp_z="1 : 0.5 : 1"
       inkscape:vp_y="0 : 1000 : 0"
       inkscape:vp_x="0 : 0.5 : 1"
       sodipodi:type="inkscape:persp3d" />
    <inkscape:perspective
       id="perspective10018"
       inkscape:persp3d-origin="0.5 : 0.33333333 : 1"
       inkscape:vp_z="1 : 0.5 : 1"
       inkscape:vp_y="0 : 1000 : 0"
       inkscape:vp_x="0 : 0.5 : 1"
       sodipodi:type="inkscape:persp3d" />
    <inkscape:perspective
       id="perspective10052"
       inkscape:persp3d-origin="0.5 : 0.33333333 : 1"
       inkscape:vp_z="1 : 0.5 : 1"
       inkscape:vp_y="0 : 1000 : 0"
       inkscape:vp_x="0 : 0.5 : 1"
       sodipodi:type="inkscape:persp3d" />
    <inkscape:perspective
       id="perspective10086"
       inkscape:persp3d-origin="0.5 : 0.33333333 : 1"
       inkscape:vp_z="1 : 0.5 : 1"
       inkscape:vp_y="0 : 1000 : 0"
       inkscape:vp_x="0 : 0.5 : 1"
       sodipodi:type="inkscape:persp3d" />
    <inkscape:perspective
       id="perspective10135"
       inkscape:persp3d-origin="0.5 : 0.33333333 : 1"
       inkscape:vp_z="1 : 0.5 : 1"
       inkscape:vp_y="0 : 1000 : 0"
       inkscape:vp_x="0 : 0.5 : 1"
       sodipodi:type="inkscape:persp3d" />
    <inkscape:perspective
       id="perspective10175"
       inkscape:persp3d-origin="0.5 : 0.33333333 : 1"
       inkscape:vp_z="1 : 0.5 : 1"
       inkscape:vp_y="0 : 1000 : 0"
       inkscape:vp_x="0 : 0.5 : 1"
       sodipodi:type="inkscape:persp3d" />
    <inkscape:perspective
       id="perspective10209"
       inkscape:persp3d-origin="0.5 : 0.33333333 : 1"
       inkscape:vp_z="1 : 0.5 : 1"
       inkscape:vp_y="0 : 1000 : 0"
       inkscape:vp_x="0 : 0.5 : 1"
       sodipodi:type="inkscape:persp3d" />
    <inkscape:perspective
       id="perspective10237"
       inkscape:persp3d-origin="0.5 : 0.33333333 : 1"
       inkscape:vp_z="1 : 0.5 : 1"
       inkscape:vp_y="0 : 1000 : 0"
       inkscape:vp_x="0 : 0.5 : 1"
       sodipodi:type="inkscape:persp3d" />
    <inkscape:perspective
       id="perspective10265"
       inkscape:persp3d-origin="0.5 : 0.33333333 : 1"
       inkscape:vp_z="1 : 0.5 : 1"
       inkscape:vp_y="0 : 1000 : 0"
       inkscape:vp_x="0 : 0.5 : 1"
       sodipodi:type="inkscape:persp3d" />
    <inkscape:perspective
       id="perspective10293"
       inkscape:persp3d-origin="0.5 : 0.33333333 : 1"
       inkscape:vp_z="1 : 0.5 : 1"
       inkscape:vp_y="0 : 1000 : 0"
       inkscape:vp_x="0 : 0.5 : 1"
       sodipodi:type="inkscape:persp3d" />
    <inkscape:perspective
       id="perspective10324"
       inkscape:persp3d-origin="0.5 : 0.33333333 : 1"
       inkscape:vp_z="1 : 0.5 : 1"
       inkscape:vp_y="0 : 1000 : 0"
       inkscape:vp_x="0 : 0.5 : 1"
       sodipodi:type="inkscape:persp3d" />
    <inkscape:perspective
       id="perspective10355"
       inkscape:persp3d-origin="0.5 : 0.33333333 : 1"
       inkscape:vp_z="1 : 0.5 : 1"
       inkscape:vp_y="0 : 1000 : 0"
       inkscape:vp_x="0 : 0.5 : 1"
       sodipodi:type="inkscape:persp3d" />
    <inkscape:perspective
       id="perspective10383"
       inkscape:persp3d-origin="0.5 : 0.33333333 : 1"
       inkscape:vp_z="1 : 0.5 : 1"
       inkscape:vp_y="0 : 1000 : 0"
       inkscape:vp_x="0 : 0.5 : 1"
       sodipodi:type="inkscape:persp3d" />
    <inkscape:perspective
       id="perspective10438"
       inkscape:persp3d-origin="0.5 : 0.33333333 : 1"
       inkscape:vp_z="1 : 0.5 : 1"
       inkscape:vp_y="0 : 1000 : 0"
       inkscape:vp_x="0 : 0.5 : 1"
       sodipodi:type="inkscape:persp3d" />
    <inkscape:perspective
       id="perspective10481"
       inkscape:persp3d-origin="0.5 : 0.33333333 : 1"
       inkscape:vp_z="1 : 0.5 : 1"
       inkscape:vp_y="0 : 1000 : 0"
       inkscape:vp_x="0 : 0.5 : 1"
       sodipodi:type="inkscape:persp3d" />
  </defs>
  <sodipodi:namedview
     id="base"
     pagecolor="#ffffff"
     bordercolor="#666666"
     borderopacity="1.0"
     inkscape:pageopacity="0.0"
     inkscape:pageshadow="2"
     inkscape:zoom="0.8411952"
     inkscape:cx="268.26511"
     inkscape:cy="281.21221"
     inkscape:document-units="px"
     inkscape:current-layer="layer1"
     showgrid="false"
     inkscape:window-width="1280"
     inkscape:window-height="1004"
     inkscape:window-x="-8"
     inkscape:window-y="-8"
     inkscape:window-maximized="1"
     fit-margin-top="0.2"
     fit-margin-left="0.2"
     fit-margin-right="0.2"
     fit-margin-bottom="0.2" />
  <metadata
     id="metadata9653">
    <rdf:RDF>
      <cc:Work
         rdf:about="">
        <dc:format>image/svg+xml</dc:format>
        <dc:type
           rdf:resource="http://purl.org/dc/dcmitype/StillImage" />
        <dc:title />
      </cc:Work>
    </rdf:RDF>
  </metadata>
  <g
     inkscape:label="Livello 1"
     inkscape:groupmode="layer"
     id="layer1"
     transform="translate(619.11393,-80.510766)">
    <path
       d="m -318.58513,80.710766 c -165.86979,0 -300.3288,134.458994 -300.3288,300.328794 0,165.84596 134.45901,300.30497 300.3288,300.30497 165.86978,0 300.328791,-134.45901 300.328791,-300.30497 0,-165.8698 -134.459011,-300.328794 -300.328791,-300.328794 z"
       style="fill:#d20000;fill-opacity:1;fill-rule:nonzero;stroke:none"
       id="path6904"
       inkscape:connector-curvature="0"
       sodipodi:nodetypes="sssss" />
    <path
       id="path3051"
       style="fill:#f8c800;fill-opacity:1;fill-rule:nonzero;stroke:none"
       d="m -558.83398,381.03956 c 0,-132.6391 107.63336,-240.27249 240.24885,-240.27249 132.61548,0 240.248845,107.63339 240.248845,240.27249 0,132.61528 -107.633365,240.24867 -240.248845,240.24867 -132.61549,0 -240.24885,-107.63339 -240.24885,-240.24867"
       inkscape:connector-curvature="0" />
    <path
       id="path3053"
       style="fill:#000000;fill-opacity:1;fill-rule:nonzero;stroke:none"
       d="m -325.20292,543.81298 c -3.45068,-4.18336 -8.46128,-6.14507 -13.25917,-6.14507 -5.69601,0 -11.15567,2.0326 -14.22823,5.5542 l 0,-4.72697 -14.88998,0 0,54.59663 14.88998,0 0,-29.80362 c 0,-8.46129 4.79791,-12.43195 9.28853,-12.43195 4.49063,0 7.70498,2.69437 7.70498,9.97392 l 0,32.26165 14.91363,0 0,-29.80362 c 0,-8.46129 4.77426,-12.43195 9.28851,-12.43195 4.56155,0 7.70499,2.69437 7.70499,9.97392 l 0,32.26165 14.88999,0 0,-35.19237 c 0,-14.08642 -10.02119,-20.23149 -19.75878,-20.23149 -6.66505,0 -12.71558,2.33985 -16.54445,6.14507"
       inkscape:connector-curvature="0" />
    <path
       id="path3055"
       style="fill:#000000;fill-opacity:1;fill-rule:nonzero;stroke:none"
       d="m -362.59334,522.30522 0,-101.53538 -18.76612,0 c 0,8.93399 -3.21435,14.65363 -18.55341,14.65363 l 0,17.2533 16.75716,0 0,69.62845 20.56237,0"
       inkscape:connector-curvature="0" />
    <path
       id="path3057"
       style="fill:#000000;fill-opacity:1;fill-rule:nonzero;stroke:none"
       d="m -306.5786,420.62802 c -37.74495,0 -42.16468,34.81404 -42.16468,51.45301 0,16.7808 4.41973,51.3823 42.16468,51.3823 37.81586,0 42.14104,-34.6015 42.14104,-51.3823 0,-16.63897 -4.32518,-51.45301 -42.14104,-51.45301 z m 0,17.04079 c 20.86963,0 23.28039,23.0911 23.28039,34.31768 0,11.34477 -2.41076,34.53062 -23.28039,34.53062 -20.89326,0 -23.28039,-23.18585 -23.28039,-34.53062 0,-11.22658 2.38713,-34.31768 23.28039,-34.31768"
       inkscape:connector-curvature="0" />
    <path
       id="path3059"
       style="fill:#000000;fill-opacity:1;fill-rule:nonzero;stroke:none"
       d="m -406.19975,348.42339 c -17.41893,0 -31.52897,14.11004 -31.52897,31.52897 0,17.39528 14.11004,31.52895 31.52897,31.52895 17.3953,0 31.50534,-14.13367 31.50534,-31.52895 0,-17.41893 -14.11004,-31.52897 -31.50534,-31.52897 z m -0.11347,45.80444 c -8.08314,0 -14.63001,-6.54687 -14.63001,-14.63001 0,-8.05949 6.54687,-14.60637 14.63001,-14.60637 8.08314,0 14.63,6.54688 14.63,14.60637 0,8.08314 -6.54686,14.63001 -14.63,14.63001"
       inkscape:connector-curvature="0" />
    <path
       id="path3061"
       style="fill:#000000;fill-opacity:1;fill-rule:nonzero;stroke:none"
       d="m -229.15063,348.65974 c -17.3953,0 -31.50534,14.11002 -31.50534,31.50532 0,17.41893 14.11004,31.52897 31.50534,31.52897 17.41893,0 31.52897,-14.11004 31.52897,-31.52897 0,-17.3953 -14.11004,-31.50532 -31.52897,-31.50532 z m -0.0946,45.80444 c -8.08314,0 -14.63002,-6.54687 -14.63002,-14.63001 0,-8.08314 6.54688,-14.63 14.63002,-14.63 8.05949,0 14.60636,6.54686 14.60636,14.63 0,8.08314 -6.54687,14.63001 -14.60636,14.63001"
       inkscape:connector-curvature="0" />
    <path
       id="path3063"
       style="fill:#000000;fill-opacity:1;fill-rule:nonzero;stroke:none"
       d="m -158.60044,323.70126 0,-83.90393 -234.57647,0 0,14.18095 -58.75639,0 -12.76284,48.85335 -18.12799,3.61615 c 0,0 -3.73431,1.2536 -5.22331,3.07253 -1.3935,1.70172 -2.00896,5.27059 -2.00896,5.27059 l -2.978,48.59338 -6.21599,4.5379 0,10.87205 52.46951,0 c 0.63908,-21.83865 18.57704,-39.44665 40.58113,-39.44665 22.40591,0 40.58115,18.17524 40.58115,40.60478 0,1.81893 -0.11347,3.59249 -0.35358,5.34147 l 9.64304,-0.11347 0,-4.56155 c 0,0 0.37817,-7.89405 0,-12.90465 -0.0566,-0.75632 -0.17012,-1.55991 -0.26093,-2.38713 l 77.38069,0 c -0.11347,0.9454 -0.18908,1.74898 -0.26092,2.59985 -0.37817,5.03423 0,12.92828 0,12.92828 l 0.26092,4.467 9.9503,0 c -0.21365,-1.67712 -0.45001,-3.40342 -0.45001,-5.1524 0,-22.40589 18.15162,-40.60478 40.55751,-40.60478 22.42953,0 40.60477,18.19889 40.60477,40.60478 0,2.33985 0.35359,4.7506 -0.0189,6.97229 l 9.76121,0.0757 0,-4.5379 c 0,0 0.37815,-7.89405 0,-12.92829 -0.11347,-1.39541 -0.26093,-2.8362 -0.49728,-4.41973 l 20.70418,0 0,-34.3179 -235.14371,0.0189 0,-7.32683 235.14371,0 z m -241.92693,-20.42056 -52.82402,0 9.05217,-37.86311 43.77185,0 0,37.86311"
       inkscape:connector-curvature="0" />
    <path
       id="path3065"
       style="fill:#000000;fill-opacity:1;fill-rule:nonzero;stroke:none"
       d="m -203.79038,493.35245 -0.0189,29.33092 45.21359,-39.91935 -45.21359,-39.89572 -0.0189,29.99269 -32.45073,0.0189 0,20.49148 32.498,-0.0189"
       inkscape:connector-curvature="0" />
    <path
       id="path3067"
       style="fill:#000000;fill-opacity:1;fill-rule:nonzero;stroke:none"
       d="m -455.45489,472.19921 0.0189,-29.33091 -45.21357,39.89572 45.21357,39.91935 0.0189,-30.01632 32.45073,0 0,-20.49147 -32.498,0.0189"
       inkscape:connector-curvature="0" />
  </g>
</svg>
