<?xml version="1.0" encoding="UTF-8" standalone="no"?>
<!-- Created with Inkscape (http://www.inkscape.org/) -->

<svg
   xmlns:dc="http://purl.org/dc/elements/1.1/"
   xmlns:cc="http://creativecommons.org/ns#"
   xmlns:rdf="http://www.w3.org/1999/02/22-rdf-syntax-ns#"
   xmlns:svg="http://www.w3.org/2000/svg"
   xmlns="http://www.w3.org/2000/svg"
   xmlns:sodipodi="http://sodipodi.sourceforge.net/DTD/sodipodi-0.dtd"
   xmlns:inkscape="http://www.inkscape.org/namespaces/inkscape"
   width="300.7832"
   height="100.17561"
   id="svg8622"
   version="1.1"
   inkscape:version="0.47 r22583"
   sodipodi:docname="H01.11.svg">
  <defs
     id="defs8624"><inkscape:perspective
   sodipodi:type="inkscape:persp3d"
   inkscape:vp_x="0 : 526.18109 : 1"
   inkscape:vp_y="0 : 1000 : 0"
   inkscape:vp_z="744.09448 : 526.18109 : 1"
   inkscape:persp3d-origin="372.04724 : 350.78739 : 1"
   id="perspective8630" />
<inkscape:perspective
   id="perspective8640"
   inkscape:persp3d-origin="0.5 : 0.33333333 : 1"
   inkscape:vp_z="1 : 0.5 : 1"
   inkscape:vp_y="0 : 1000 : 0"
   inkscape:vp_x="0 : 0.5 : 1"
   sodipodi:type="inkscape:persp3d" />
<inkscape:perspective
   sodipodi:type="inkscape:persp3d"
   inkscape:vp_x="0 : 526.18109 : 1"
   inkscape:vp_y="0 : 1000 : 0"
   inkscape:vp_z="744.09448 : 526.18109 : 1"
   inkscape:persp3d-origin="372.04724 : 350.78739 : 1"
   id="perspective9656" />
<inkscape:perspective
   sodipodi:type="inkscape:persp3d"
   inkscape:vp_x="0 : 226.5 : 1"
   inkscape:vp_y="0 : 1000 : 0"
   inkscape:vp_z="510 : 226.5 : 1"
   inkscape:persp3d-origin="255 : 151 : 1"
   id="perspective18" />
<inkscape:perspective
   sodipodi:type="inkscape:persp3d"
   inkscape:vp_x="0 : 0.5 : 1"
   inkscape:vp_y="0 : 1000 : 0"
   inkscape:vp_z="1 : 0.5 : 1"
   inkscape:persp3d-origin="0.5 : 0.33333333 : 1"
   id="perspective9680" />
<inkscape:perspective
   id="perspective10256"
   inkscape:persp3d-origin="0.5 : 0.33333333 : 1"
   inkscape:vp_z="1 : 0.5 : 1"
   inkscape:vp_y="0 : 1000 : 0"
   inkscape:vp_x="0 : 0.5 : 1"
   sodipodi:type="inkscape:persp3d" />
<inkscape:perspective
   id="perspective15903"
   inkscape:persp3d-origin="0.5 : 0.33333333 : 1"
   inkscape:vp_z="1 : 0.5 : 1"
   inkscape:vp_y="0 : 1000 : 0"
   inkscape:vp_x="0 : 0.5 : 1"
   sodipodi:type="inkscape:persp3d" />
<inkscape:perspective
   id="perspective16500"
   inkscape:persp3d-origin="0.5 : 0.33333333 : 1"
   inkscape:vp_z="1 : 0.5 : 1"
   inkscape:vp_y="0 : 1000 : 0"
   inkscape:vp_x="0 : 0.5 : 1"
   sodipodi:type="inkscape:persp3d" />
<inkscape:perspective
   id="perspective16534"
   inkscape:persp3d-origin="0.5 : 0.33333333 : 1"
   inkscape:vp_z="1 : 0.5 : 1"
   inkscape:vp_y="0 : 1000 : 0"
   inkscape:vp_x="0 : 0.5 : 1"
   sodipodi:type="inkscape:persp3d" />
<inkscape:perspective
   id="perspective16565"
   inkscape:persp3d-origin="0.5 : 0.33333333 : 1"
   inkscape:vp_z="1 : 0.5 : 1"
   inkscape:vp_y="0 : 1000 : 0"
   inkscape:vp_x="0 : 0.5 : 1"
   sodipodi:type="inkscape:persp3d" />
<inkscape:perspective
   id="perspective16599"
   inkscape:persp3d-origin="0.5 : 0.33333333 : 1"
   inkscape:vp_z="1 : 0.5 : 1"
   inkscape:vp_y="0 : 1000 : 0"
   inkscape:vp_x="0 : 0.5 : 1"
   sodipodi:type="inkscape:persp3d" />
<inkscape:perspective
   id="perspective16630"
   inkscape:persp3d-origin="0.5 : 0.33333333 : 1"
   inkscape:vp_z="1 : 0.5 : 1"
   inkscape:vp_y="0 : 1000 : 0"
   inkscape:vp_x="0 : 0.5 : 1"
   sodipodi:type="inkscape:persp3d" />
<inkscape:perspective
   id="perspective16664"
   inkscape:persp3d-origin="0.5 : 0.33333333 : 1"
   inkscape:vp_z="1 : 0.5 : 1"
   inkscape:vp_y="0 : 1000 : 0"
   inkscape:vp_x="0 : 0.5 : 1"
   sodipodi:type="inkscape:persp3d" />
<inkscape:perspective
   sodipodi:type="inkscape:persp3d"
   inkscape:vp_x="0 : 526.18109 : 1"
   inkscape:vp_y="0 : 1000 : 0"
   inkscape:vp_z="744.09448 : 526.18109 : 1"
   inkscape:persp3d-origin="372.04724 : 350.78739 : 1"
   id="perspective8630-3" />
<inkscape:perspective
   sodipodi:type="inkscape:persp3d"
   inkscape:vp_x="0 : 0.5 : 1"
   inkscape:vp_y="0 : 1000 : 0"
   inkscape:vp_z="1 : 0.5 : 1"
   inkscape:persp3d-origin="0.5 : 0.33333333 : 1"
   id="perspective8640-4" />
<inkscape:perspective
   sodipodi:type="inkscape:persp3d"
   inkscape:vp_x="0 : 526.18109 : 1"
   inkscape:vp_y="0 : 1000 : 0"
   inkscape:vp_z="744.09448 : 526.18109 : 1"
   inkscape:persp3d-origin="372.04724 : 350.78739 : 1"
   id="perspective9656-1" />
<inkscape:perspective
   sodipodi:type="inkscape:persp3d"
   inkscape:vp_x="0 : 226.5 : 1"
   inkscape:vp_y="0 : 1000 : 0"
   inkscape:vp_z="510 : 226.5 : 1"
   inkscape:persp3d-origin="255 : 151 : 1"
   id="perspective18-1" />
<inkscape:perspective
   sodipodi:type="inkscape:persp3d"
   inkscape:vp_x="0 : 0.5 : 1"
   inkscape:vp_y="0 : 1000 : 0"
   inkscape:vp_z="1 : 0.5 : 1"
   inkscape:persp3d-origin="0.5 : 0.33333333 : 1"
   id="perspective9680-3" />
<inkscape:perspective
   sodipodi:type="inkscape:persp3d"
   inkscape:vp_x="0 : 0.5 : 1"
   inkscape:vp_y="0 : 1000 : 0"
   inkscape:vp_z="1 : 0.5 : 1"
   inkscape:persp3d-origin="0.5 : 0.33333333 : 1"
   id="perspective9470" />
<inkscape:perspective
   id="perspective23996"
   inkscape:persp3d-origin="0.5 : 0.33333333 : 1"
   inkscape:vp_z="1 : 0.5 : 1"
   inkscape:vp_y="0 : 1000 : 0"
   inkscape:vp_x="0 : 0.5 : 1"
   sodipodi:type="inkscape:persp3d" />
<linearGradient
   id="linearGradient3656">
  <stop
     offset="0"
     style="stop-color: rgb(255, 255, 255); stop-opacity: 1;"
     id="stop3658" />
  <stop
     offset="1"
     style="stop-color: rgb(0, 0, 0); stop-opacity: 0;"
     id="stop3660" />
</linearGradient>
<inkscape:perspective
   inkscape:vp_x="0 : 166 : 1"
   inkscape:vp_y="0 : 1000 : 0"
   inkscape:vp_z="512 : 166 : 1"
   inkscape:persp3d-origin="256 : 110.66667 : 1"
   sodipodi:type="inkscape:persp3d"
   id="perspective2878" />

	<inkscape:perspective
   id="perspective24293"
   inkscape:persp3d-origin="0.5 : 0.33333333 : 1"
   inkscape:vp_z="1 : 0.5 : 1"
   inkscape:vp_y="0 : 1000 : 0"
   inkscape:vp_x="0 : 0.5 : 1"
   sodipodi:type="inkscape:persp3d" />
</defs>
  <sodipodi:namedview
     id="base"
     pagecolor="#ffffff"
     bordercolor="#666666"
     borderopacity="1.0"
     inkscape:pageopacity="0.0"
     inkscape:pageshadow="2"
     inkscape:zoom="1.6823904"
     inkscape:cx="426.38087"
     inkscape:cy="-1.6198351"
     inkscape:document-units="px"
     inkscape:current-layer="layer1-9"
     showgrid="false"
     inkscape:window-width="1600"
     inkscape:window-height="838"
     inkscape:window-x="-8"
     inkscape:window-y="-8"
     inkscape:window-maximized="1" />
  <metadata
     id="metadata8627">
    <rdf:RDF>
      <cc:Work
         rdf:about="">
        <dc:format>image/svg+xml</dc:format>
        <dc:type
           rdf:resource="http://purl.org/dc/dcmitype/StillImage" />
        <dc:title></dc:title>
      </cc:Work>
    </rdf:RDF>
  </metadata>
  <g
     inkscape:label="Livello 1"
     inkscape:groupmode="layer"
     id="layer1"
     transform="translate(153.83712,149.062)">
    <g
       inkscape:label="Livello 1"
       inkscape:groupmode="layer"
       transform="translate(-22.332652,-16.466412)"
       id="layer1-9"><g
   inkscape:label="Livello 1"
   inkscape:groupmode="layer"
   transform="translate(-95.000253,244.88336)"
   id="layer1-4">
  <g
     inkscape:label="Livello 1"
     inkscape:groupmode="layer"
     transform="translate(-22.3327,-16.4664)"
     id="layer1-9-2" />
</g>

	
	
<path
   d="m 159.8243,-132.51007 c 5.52119,0 9.45444,4.31194 9.45444,9.83315 l 0,80.155095 c 0,5.533425 -3.82332,10.101844 -9.34451,10.101844 l -281.41016,0 c -5.5212,0 -10.02854,-4.568419 -10.02854,-10.101844 l 0,-80.155095 c 0,-5.52121 4.50734,-9.91867 10.02854,-9.91867 l 281.30023,0.0879 z m -278.82057,89.988245 c -1.44137,0 -2.47966,-1.294787 -2.47966,-2.736163 l 0,-74.853772 c 0,-1.44138 0.74562,-2.56516 2.1865,-2.56516 l 276.21876,0 c 1.44139,0 2.89497,1.307 2.89497,2.74838 l 0,75.024779 c 0,1.416956 -1.31923,2.381936 -2.73616,2.381936 l -276.08441,0"
   style="fill:#d10000;fill-opacity:1;fill-rule:nonzero;stroke:none"
   id="path7169" />
<path
   d="m -118.99627,-42.521825 c -1.44137,0 -2.47966,-1.294787 -2.47966,-2.736163 l 0,-74.853772 c 0,-1.44138 0.74562,-2.56516 2.1865,-2.56516 l 276.21876,0 c 1.44139,0 2.89497,1.307 2.89497,2.74838 l 0,75.024779 c 0,1.416956 -1.31923,2.381936 -2.73616,2.381936 l -276.08441,0"
   style="fill:#f8c800;fill-opacity:1;fill-rule:nonzero;stroke:none"
   id="path7171" />
<path
   d="m 105.19863,-88.780173 c -2.34531,-2.85834 -5.7655,-4.18978 -9.026922,-4.18978 -3.884388,0 -7.609973,1.38031 -9.686525,3.774456 l 0,-3.212562 -10.150709,0 0,37.194815 10.150709,0 0,-20.31362 c 0,-5.76549 3.261422,-8.465018 6.315161,-8.465018 3.065993,0 5.264689,1.832252 5.264689,6.791558 l 0,21.98708 10.138497,0 0,-20.31362 c 0,-5.76549 3.27363,-8.465018 6.3396,-8.465018 3.10263,0 5.25246,1.832252 5.25246,6.791558 l 0,21.98708 10.15071,0 0,-23.978134 c 0,-9.588795 -6.84042,-13.778575 -13.47318,-13.778575 -4.54401,0 -8.6727,1.587972 -11.27449,4.18978"
   style="fill:#000000;fill-opacity:1;fill-rule:nonzero;stroke:none"
   id="path7173" />
<path
   d="m -79.346238,-86.801352 c 0.561892,-7.854263 4.030963,-10.859163 9.087993,-10.859163 5.301327,0 8.403948,2.90717 8.403948,8.159646 0,7.500041 -8.208509,12.300545 -15.806266,17.394218 l -10.61487,7.14581 0,9.747597 36.632911,0 0,-9.344505 -19.849443,0 7.243519,-5.301336 c 9.747605,-7.096929 13.680846,-11.628719 13.680846,-20.65562 0,-8.782642 -5.924295,-16.893425 -19.800582,-16.893425 -12.899085,0 -19.336413,9.845335 -19.336413,20.606778 l 10.358357,0"
   style="fill:#000000;fill-opacity:1;fill-rule:nonzero;stroke:none"
   id="path7175" />
<path
   d="m -20.67739,-107.50583 c -19.189822,0 -21.437403,17.699579 -21.437403,26.164616 0,8.52609 2.247581,26.12797 21.437403,26.12797 19.226476,0 21.41298361,-17.60188 21.41298361,-26.12797 0,-8.465037 -2.18650761,-26.164616 -21.41298361,-26.164616 z m 0,8.672667 c 10.602662,0 11.8241653,11.726439 11.8241653,17.443089 0,5.7655 -1.2215033,17.540809 -11.8241653,17.540809 -10.61487,0 -11.836375,-11.775309 -11.836375,-17.540809 0,-5.71665 1.221505,-17.443089 11.836375,-17.443089"
   style="fill:#000000;fill-opacity:1;fill-rule:nonzero;stroke:none"
   id="path7177" />
<path
   d="m 30.809023,-107.50583 c -19.177614,0 -21.425194,17.699579 -21.425194,26.164616 0,8.52609 2.24758,26.12797 21.425194,26.12797 19.238686,0 21.425169,-17.60188 21.425169,-26.12797 0,-8.465037 -2.186483,-26.164616 -21.425169,-26.164616 z m 0,8.672667 c 10.61487,0 11.836375,11.726439 11.836375,17.443089 0,5.7655 -1.221505,17.540809 -11.836375,17.540809 -10.614872,0 -11.836375,-11.775309 -11.836375,-17.540809 0,-5.71665 1.221503,-17.443089 11.836375,-17.443089"
   style="fill:#000000;fill-opacity:1;fill-rule:nonzero;stroke:none"
   id="path7179" />
</g>
  </g>
</svg>
